<svg xmlns="http://www.w3.org/2000/svg" xmlns:xlink="http://www.w3.org/1999/xlink" height="210.25781793417744" width="346.6936118580599">
  <g opacity="1">
    <g opacity="1">
      <path fill-opacity="0" stroke="rgb(0,0,0)" stroke-opacity="1" stroke-width="5" stroke-linecap="butt" stroke-linejoin="miter" opacity="1" fill-rule="evenodd" d="M157.5987032510305 65.56235836296074C158.94316210696462 66.32357803211039 162.5987032510305 62.56235836296075 162.5987032510305 62.56235836296075C162.5987032510305 62.56235836296075 161.5987032510305 60.56235836296075 161.0987032510305 59.56235836296076C160.5987032510305 58.56235836296076 159.0987032510305 57.062358362960765 159.0987032510305 57.062358362960765L161.0987032510305 54.06235836296077C161.0987032510305 54.06235836296077 160.5987032510305 51.56235836296078 159.0987032510305 52.06235836296078C157.5987032510305 52.56235836296078 156.09870325103049 57.06235836296078 156.09870325103049 57.06235836296078C156.09870325103049 57.06235836296078 154.59870325103049 59.56235836296078 156.09870325103049 59.56235836296078C157.5987032510305 59.56235836296078 159.09870325103049 61.06235836296078 159.09870325103049 61.06235836296078C159.09870325103049 61.06235836296078 159.09870325103049 62.56235836296077 157.59870325103049 62.56235836296077C156.09870325103049 62.56235836296077 156.25424439509638 64.80113869381108 157.5987032510305 65.56235836296074Z"/>
    </g>
    <g opacity="1">
      <path fill-opacity="0" stroke="rgb(0,0,0)" stroke-opacity="1" stroke-width="5" stroke-linecap="butt" stroke-linejoin="miter" opacity="1" fill-rule="evenodd" d="M123.43203658436381 53.99624266048144C126.4508847302335 53.02880732818309 126.93203658436383 45.99624266048145 127.93203658436383 45.496242660481435C128.93203658436383 44.996242660481435 133.93203658436383 43.996242660481435 133.93203658436383 43.996242660481435L135.43203658436386 40.49624266048143L138.43203658436383 40.49624266048143C138.43203658436383 40.49624266048143 143.93203658436383 38.496242660481435 143.93203658436383 37.496242660481435C143.93203658436383 36.49624266048143 140.93203658436383 33.49624266048143 142.4320365843638 32.49624266048143C143.93203658436383 31.49624266048143 148.26775128030368 30.30791231440473 148.43203658436383 27.996242660481432C148.59632188842397 25.684573006558125 145.43203658436383 27.49624266048143 146.93203658436383 26.496242660481432C148.43203658436383 25.49624266048143 146.93203658436383 22.496242660481435 146.93203658436383 22.496242660481435C146.93203658436383 22.496242660481435 145.43203658436383 19.49624266048143 146.93203658436383 18.996242660481432C148.43203658436383 18.49624266048143 153.43203658436383 16.49624266048143 153.93203658436383 15.49624266048143C154.4320365843638 14.49624266048143 143.93203658436383 16.99624266048143 143.93203658436383 16.99624266048143C143.93203658436383 16.99624266048143 138.43203658436383 16.996242660481407 138.43203658436383 15.496242660481405C138.43203658436383 13.996242660481405 142.93159313438414 12.992082132149308 142.43203658436386 11.996242660481403C141.93248003434354 11.0004031888135 135.43203658436386 13.496242660481403 135.43203658436386 13.496242660481403C135.43203658436386 13.496242660481403 130.93203658436383 11.996242660481347 129.43203658436383 11.996242660481375C127.93203658436383 11.996242660481403 127.84017166767053 15.390560335307608 125.93203658436384 15.496242660481405C124.02390150105715 15.601924985655202 124.65819509661287 13.34057858999867 123.43203658436386 13.496242660481403C122.20587807211483 13.65190673096414 123.93203658436384 15.496242660481377 121.93203658436384 15.496242660481405C119.93203658436384 15.496242660481434 117.43203658436381 13.496242660481403 117.43203658436381 13.496242660481403C117.43203658436381 13.496242660481403 113.93203658436383 16.996242660481435 112.43203658436384 16.996242660481435C110.93203658436384 16.996242660481435 109.43203658436381 18.996242660481435 109.43203658436381 18.996242660481435C109.43203658436381 18.996242660481435 102.93203658436383 20.996242660481435 103.43203658436383 22.496242660481435C103.93203658436383 23.996242660481435 107.43203658436381 22.496242660481435 107.43203658436381 22.496242660481435L107.43203658436381 23.996242660481435L105.43203658436383 23.996242660481435C105.43203658436383 23.996242660481435 105.43203658436381 26.496242660481435 107.43203658436383 26.496242660481435C109.43203658436384 26.496242660481435 111.43203658436383 24.996242660481435 114.43203658436383 26.496242660481435C117.43203658436383 27.996242660481432 115.93203658436383 34.996242660481435 115.93203658436383 34.996242660481435L118.93203658436384 34.996242660481435C118.93203658436384 34.996242660481435 117.43203658436379 42.49624266048144 117.4320365843638 43.996242660481435C117.43203658436381 45.496242660481435 118.93203658436384 52.99624266048144 120.43203658436384 52.49624266048144C121.93203658436384 51.99624266048144 120.41318843849415 54.9636779927798 123.43203658436381 53.99624266048144Z"/>
    </g>
    <g opacity="1">
      <path fill-opacity="0" stroke="rgb(0,0,0)" stroke-opacity="1" stroke-width="5" stroke-linecap="butt" stroke-linejoin="miter" opacity="1" fill-rule="evenodd" d="M278.9320365843638 171.9962426604814C275.2434324354516 171.39766460990856 276.4320365843638 169.9962426604814 276.4320365843638 169.9962426604814C276.4320365843638 169.9962426604814 275.7950167652059 169.13326247963937 276.4320365843638 168.49624266048144C277.06905640352176 167.85922284132351 278.9320365843638 169.9962426604814 278.9320365843638 168.49624266048144C278.9320365843638 166.9962426604814 276.4320365843638 160.9962426604814 276.4320365843638 160.9962426604814L278.9320365843638 155.9962426604814L284.4320365843638 152.9962426604814L285.93203658436374 149.4962426604814L291.43203658436374 145.9962426604814C291.43203658436374 145.9962426604814 292.43203658436374 148.4962426604814 293.43203658436374 147.9962426604814C294.43203658436374 147.4962426604814 295.43203658436374 144.4962426604814 295.43203658436374 144.4962426604814C295.43203658436374 144.4962426604814 300.4320365843637 142.9962426604814 300.9320365843637 144.4962426604814C301.4320365843637 145.9962426604814 299.43203658436374 147.99624266048144 299.43203658436374 147.99624266048144C299.43203658436374 147.99624266048144 302.4320365843637 149.49624266048144 304.4320365843637 149.49624266048144C306.4320365843637 149.49624266048144 305.6224774982534 142.269409021032 306.9320365843637 142.49624266048144C308.241595670474 142.72307629993085 306.018576522389 144.28942692198555 306.9320365843637 145.99624266048144C307.8454966463384 147.7030583989773 308.82162564855554 145.9214208479786 309.9320365843637 147.99624266048144C311.04244752017183 150.0710644729843 308.43203658436374 152.99624266048133 309.9320365843637 152.99624266048139C311.4320365843637 152.99624266048144 311.578782445786 152.14298852190367 312.4320365843637 152.99624266048139C313.28529072294145 153.8494967990591 311.6442380695137 155.20844414563132 312.43203658436374 155.99624266048139C313.2198350992138 156.78404117533148 313.7325080824426 155.29671415856026 314.43203658436374 155.99624266048139C315.13156508628487 156.69577116240254 314.0014654146304 156.9417441182517 314.43203658436374 158.49624266048147C314.86260775409716 160.0507412027112 315.0979841545327 157.98504874538847 315.9320365843638 160.9962426604814C316.76608901419485 164.00743657557436 317.5746415434049 166.0051681536604 315.9320365843638 168.4962426604814C314.28943162532266 170.98731716730245 313.27399715071556 168.7193766124135 312.43203658436374 169.9962426604814C311.5900760180119 171.27310870854933 313.0407614983341 170.52665071741973 312.43203658436374 171.9962426604814C311.8233116703934 173.46583460354313 309.93203658436374 174.4962426604815 309.93203658436374 174.4962426604815C309.93203658436374 174.4962426604815 307.93203658436363 177.4962426604815 304.4320365843637 176.9962426604815C300.9320365843638 176.4962426604815 299.43203658436374 174.4962426604815 299.43203658436374 174.4962426604815L299.43203658436374 171.9962426604814C299.43203658436374 171.9962426604814 296.59335872959304 173.1575648057107 295.4320365843637 171.9962426604814C294.2707144391344 170.83492051525212 295.4320365843637 168.49624266048144 295.4320365843637 168.49624266048144C295.4320365843637 168.49624266048144 290.9320365843638 166.99624266048144 288.4320365843638 168.49624266048144C285.9320365843638 169.99624266048144 282.620640733276 172.5948207110543 278.9320365843638 171.9962426604814Z"/>
    </g>
    <g opacity="1">
      <path fill-opacity="0" stroke="rgb(0,0,0)" stroke-opacity="1" stroke-width="5" stroke-linecap="butt" stroke-linejoin="miter" opacity="1" fill-rule="evenodd" d="M161.93203658436383 73.49624266048144L161.93203658436383 77.49624266048147L154.93203658436383 78.99624266048146C154.93203658436383 78.99624266048146 152.27657322988057 84.77834042271058 154.93203658436383 85.49624266048147C157.58749993884712 86.21414489825233 158.9320365843638 88.49624266048146 160.43203658436383 86.99624266048146C161.93203658436383 85.49624266048147 164.4320365843638 82.99624266048147 164.9320365843638 80.99624266048147C165.4320365843638 78.99624266048146 172.4320365843638 77.49624266048147 172.4320365843638 77.49624266048147L176.93203658436377 80.99624266048147C176.93203658436377 80.99624266048147 179.93203658436377 82.49624266048147 178.4320365843638 83.99624266048144C176.93203658436377 85.49624266048144 181.43203658436377 82.49624266048147 181.43203658436377 82.49624266048147L178.4320365843638 78.99624266048146C178.4320365843638 78.99624266048146 175.43203658436377 76.49624266048144 176.93203658436374 75.99624266048144C178.4320365843638 75.49624266048146 182.9320365843638 78.99624266048146 182.9320365843638 78.99624266048146C182.9320365843638 78.99624266048146 183.4320365843638 82.49624266048144 184.4320365843638 83.99624266048143C185.4320365843638 85.49624266048144 187.4320365843638 83.99624266048143 187.4320365843638 83.99624266048143C187.4320365843638 83.99624266048143 185.4320365843638 80.99624266048147 187.4320365843638 80.99624266048147C189.4320365843638 80.99624266048147 189.93203658436377 78.99624266048146 189.93203658436377 78.99624266048146C189.93203658436377 78.99624266048146 191.4320365843638 73.49624266048144 192.93203658436377 73.49624266048144C194.43203658436377 73.49624266048144 199.9320365843638 73.49624266048144 199.9320365843638 73.49624266048144C199.9320365843638 73.49624266048144 205.93203658436377 80.99624266048141 202.9320365843638 80.99624266048141C199.9320365843638 80.99624266048141 196.93203658436377 78.99624266048146 196.93203658436377 78.99624266048146L192.93203658436377 78.99624266048144C192.93203658436377 78.99624266048144 189.93203658436377 80.99624266048153 189.93203658436377 82.49624266048147C189.93203658436377 83.99624266048143 194.9320365843638 86.99624266048147 194.9320365843638 86.99624266048147L198.4320365843638 86.99624266048149C198.4320365843638 86.99624266048149 196.93203658436377 92.9962426604814 196.93203658436377 93.49624266048141C196.93203658436377 93.9962426604814 192.93203658436377 93.4962426604814 192.93203658436377 93.4962426604814L184.4320365843638 90.99624266048137L182.9320365843638 93.4962426604814C182.9320365843638 93.4962426604814 175.4320365843638 92.99624266048139 173.9320365843638 90.9962426604814C172.4320365843638 88.9962426604814 173.9320365843638 86.99624266048146 173.9320365843638 86.99624266048146C173.9320365843638 86.99624266048146 164.93203658436383 85.49624266048153 163.4320365843638 86.99624266048144C161.93203658436383 88.49624266048139 160.4320365843638 90.9962426604814 160.4320365843638 90.9962426604814L154.93203658436386 90.99624266048137C154.93203658436386 90.99624266048137 153.93203658436383 96.49624266048137 151.43203658436383 96.99624266048134C148.93203658436383 97.49624266048134 147.93203658436383 111.49624266048133 147.93203658436383 111.49624266048133L146.43203658436383 112.99624266048139C146.43203658436383 112.99624266048139 152.43203658436389 125.99624266048141 154.93203658436386 125.99624266048141C157.43203658436383 125.99624266048141 166.4320365843638 121.99624266048141 167.93203658436383 122.99624266048144C169.4320365843638 123.99624266048141 170.93203658436383 125.99624266048134 173.9320365843638 125.99624266048141C176.9320365843638 125.99624266048144 172.4320365843638 131.4962426604814 172.4320365843638 131.4962426604814L175.4320365843638 136.99624266048147L176.93203658436377 144.49624266048147C176.93203658436377 144.49624266048147 175.4320365843638 147.99624266048147 175.4320365843638 150.99624266048144C175.4320365843638 153.99624266048144 178.43203658436377 157.49624266048144 178.43203658436377 157.49624266048144L178.43203658436377 161.99624266048144L179.9320365843638 165.99624266048144C179.9320365843638 165.99624266048144 181.4320365843638 171.49624266048144 182.9320365843638 171.49624266048144C184.4320365843638 171.49624266048144 185.9320365843638 171.49624266048144 185.9320365843638 171.49624266048144L189.93203658436377 169.49624266048144C189.93203658436377 169.49624266048144 192.93203658436377 165.99624266048144 194.9320365843638 163.99624266048144C196.93203658436377 161.99624266048144 196.93203658436377 159.99624266048144 196.93203658436377 159.99624266048144C196.93203658436377 159.99624266048144 196.93203658436377 156.99624266048144 198.4320365843638 153.99624266048144C199.9320365843638 150.99624266048144 200.9320365843638 151.49624266048144 202.9320365843638 148.99624266048144C204.93203658436377 146.4962426604814 202.9320365843638 138.99624266048147 202.9320365843638 136.99624266048147C202.9320365843638 134.99624266048147 214.93203658436374 119.99624266048147 214.93203658436374 118.49624266048146C214.93203658436374 116.99624266048146 209.93203658436377 118.49624266048146 209.93203658436377 118.49624266048146C209.93203658436377 118.49624266048146 206.9320365843638 118.99624266048146 204.9320365843638 115.99624266048146C202.9320365843638 112.99624266048144 196.93203658436377 96.99624266048134 196.93203658436377 96.99624266048134C196.93203658436377 96.99624266048134 203.93203658436383 112.99624266048134 206.9320365843638 112.99624266048139C209.93203658436383 112.99624266048144 214.93203658436374 112.99624266048139 214.93203658436374 112.99624266048139C214.93203658436374 112.99624266048139 220.93203658436377 108.49624266048144 221.4320365843638 106.99624266048146C221.9320365843638 105.49624266048144 222.9320365843638 100.99624266048147 218.9320365843638 100.49624266048146C214.9320365843638 99.99624266048144 217.84829661884515 102.62793139814147 214.93203658436374 101.99624266048146C212.01577654988233 101.36455392282144 209.93203658436383 96.99624266048134 209.93203658436383 96.99624266048134C209.93203658436383 96.99624266048134 209.93203658436383 93.49624266048133 212.4320365843638 93.4962426604814C214.9320365843638 93.49624266048146 220.93203658436377 100.49624266048146 222.9320365843638 100.49624266048146C224.9320365843638 100.49624266048146 231.4320365843638 102.49624266048146 231.9320365843638 103.99624266048146C232.4320365843638 105.49624266048144 235.4320365843638 105.99624266048149 235.9320365843638 103.99624266048146C236.4320365843638 101.99624266048146 238.43203658436377 120.99624266048147 240.43203658436377 120.99624266048147C242.43203658436374 120.99624266048147 243.4320365843638 112.99624266048139 243.4320365843638 112.99624266048139C243.4320365843638 112.99624266048139 249.4288524202742 101.38870777729137 253.9320365843638 101.99624266048146C258.4352207484534 102.60377754367154 257.4320365843638 107.99624266048144 257.4320365843638 108.49624266048144C257.4320365843638 108.99624266048146 255.93203658436383 111.49624266048124 257.4320365843638 111.49624266048133C258.93203658436374 111.49624266048146 260.4320365843638 111.49624266048133 260.4320365843638 111.49624266048133C260.4320365843638 111.49624266048133 264.4320365843638 125.99624266048134 264.9320365843638 125.99624266048141C265.4320365843638 125.99624266048144 267.9320365843638 129.99624266048147 268.4320365843638 127.99624266048147C268.93203658436374 125.99624266048144 263.4320365843638 115.99624266048141 264.9320365843638 115.99624266048141C266.4320365843638 115.99624266048141 268.4320365843638 120.99624266048147 268.4320365843638 120.99624266048147L273.9320365843638 115.99624266048146L268.4320365843638 106.99624266048146C268.4320365843638 106.99624266048146 270.9320365843638 102.49624266048146 272.4320365843638 103.99624266048146C273.9320365843638 105.49624266048144 275.9320365843638 103.99624266048146 275.9320365843638 103.99624266048146C275.9320365843638 103.99624266048146 285.4320365843638 100.49624266048123 284.4320365843638 96.99624266048134C283.4320365843638 93.49624266048146 280.9320365843638 86.99624266048144 280.9320365843638 86.99624266048144L282.9320365843638 85.49624266048146L280.9320365843638 83.99624266048144L278.4320365843638 83.99624266048144C278.4320365843638 83.99624266048144 277.4320365843638 79.49624266048144 280.9320365843638 80.99624266048147C284.4320365843638 82.49624266048144 287.4320365843638 87.49624266048146 288.4320365843638 88.49624266048144C289.4320365843638 89.49624266048144 290.9320365843638 86.99624266048144 290.9320365843638 86.99624266048144L288.4320365843638 82.49624266048144L290.9320365843638 77.49624266048144L296.9320365843638 73.49624266048144C296.9320365843638 73.49624266048144 300.4320365843638 65.49624266048146 296.9320365843638 63.99624266048144C293.4320365843638 62.49624266048146 290.9320365843638 61.49624266048145 290.9320365843638 61.49624266048145C290.9320365843638 61.49624266048145 292.9320365843638 54.49624266048146 294.9320365843638 54.49624266048146C296.9320365843638 54.49624266048146 304.9320365843638 54.49624266048146 304.9320365843638 54.49624266048146C304.9320365843638 54.49624266048146 306.4320365843638 50.49624266048144 310.4320365843638 50.99624266048146C314.4320365843638 51.49624266048146 310.4320365843638 58.4962426604815 310.4320365843638 58.4962426604815C310.4320365843638 58.4962426604815 308.9320365843638 65.49624266048153 310.4320365843638 65.9962426604815C311.9320365843638 66.4962426604815 315.4320365843638 61.4962426604815 315.4320365843638 61.4962426604815C315.4320365843638 61.4962426604815 312.4320365843638 54.49624266048151 315.4320365843638 54.49624266048151C318.43203658436386 54.49624266048151 320.4320365843638 54.49624266048151 320.4320365843638 54.49624266048151L322.4320365843638 50.99624266048151L325.9320365843638 49.49624266048151L324.4320365843638 45.99624266048151L325.9320365843638 42.99624266048148C325.9320365843638 42.99624266048148 330.9320365843638 45.99624266048159 332.4320365843638 45.996242660481535C333.9320365843638 45.99624266048148 334.9320365843638 42.99624266048151 334.9320365843638 42.99624266048151L325.9320365843638 38.99624266048148L320.4320365843638 37.49624266048148L313.9320365843638 35.99624266048148L313.9320365843638 37.4962426604815L307.9320365843638 37.496242660481535C307.9320365843638 37.496242660481535 307.9320365843638 37.49624266048164 306.4320365843638 37.49624266048156C304.9320365843638 37.49624266048148 302.9320365843638 37.496242660481535 302.4320365843638 35.99624266048151C301.9320365843638 34.49624266048148 296.9320365843638 35.99624266048151 296.9320365843638 35.99624266048151L294.9320365843638 32.99624266048146L288.4320365843638 32.99624266048146L286.4320365843638 31.496242660481457C286.4320365843638 31.496242660481457 285.9320365843638 34.49624266048146 284.4320365843638 34.49624266048146C282.9320365843638 34.49624266048146 278.4320365843638 34.49624266048146 278.4320365843638 34.49624266048146L270.4320365843638 31.496242660481457C270.4320365843638 31.496242660481457 269.9320365843638 32.99624266048146 268.43203658436386 32.99624266048146C266.9320365843638 32.99624266048146 264.9320365843638 31.496242660481457 264.9320365843638 31.496242660481457L258.9320365843638 29.996242660481457L260.4320365843638 26.996242660481457C260.4320365843638 26.996242660481457 259.4320365843637 24.496242660481457 257.4320365843638 24.496242660481457C255.43203658436383 24.496242660481457 252.43203658436383 24.496242660481457 252.43203658436383 24.496242660481457C252.43203658436383 24.496242660481457 252.93203658436383 21.496242660481457 250.43203658436383 22.996242660481453C247.93203658436383 24.496242660481457 248.43203658436383 26.996242660481414 248.43203658436383 26.996242660481414L243.43203658436374 26.996242660481386L237.93203658436383 26.996242660481414C237.93203658436383 26.996242660481414 235.43203658436383 29.996242660481414 237.93203658436383 29.996242660481414C240.43203658436383 29.996242660481414 234.14051079757832 29.674895826621867 233.43203658436383 31.496242660481414C232.72356237114934 33.317589494340965 236.9981889273915 34.78579793582176 235.9320365843638 35.99624266048147C234.8658842413361 37.20668738514118 230.4989121725736 31.596899760094793 228.43203658436383 32.996242660481414C226.36516099615406 34.395585560868035 229.5807449785295 38.74140246511715 228.43203658436383 38.99624266048144C227.28332819019815 39.25108285584574 226.93203658436383 31.496242660481357 224.93203658436383 31.496242660481386C222.93203658436383 31.496242660481414 222.93203658436377 34.496242660481414 222.93203658436377 34.496242660481414L221.43203658436377 35.99624266048147C221.43203658436377 35.99624266048147 225.56559309794324 37.67452837815675 224.93203658436383 38.99624266048144C224.29848007078442 40.317956942806134 216.93203658436383 37.49624266048144 216.93203658436383 37.49624266048144C216.93203658436383 37.49624266048144 217.96845409193497 37.959825152910284 216.93203658436383 38.99624266048144C215.89561907679268 40.0326601680526 212.4320365843638 38.99624266048144 212.4320365843638 38.99624266048144C212.4320365843638 38.99624266048144 208.93203658436383 37.996242660481414 206.93203658436383 40.496242660481414C204.93203658436383 42.996242660481414 196.93203658436377 47.496242660481414 196.93203658436377 47.496242660481414C196.93203658436377 47.496242660481414 192.93203658436377 42.99624266048147 194.9320365843638 42.99624266048144C196.93203658436383 42.996242660481414 199.9320365843638 40.496242660481386 199.9320365843638 40.496242660481386C199.9320365843638 40.496242660481386 190.43203658436377 34.49624266048153 184.4320365843638 35.99624266048147C178.43203658436383 37.496242660481414 176.93203658436374 40.496242660481386 176.93203658436374 40.496242660481386C176.93203658436374 40.496242660481386 174.93203658436371 49.49624266048153 172.43203658436377 49.49624266048147C169.93203658436383 49.496242660481414 167.93203658436383 47.496242660481414 167.93203658436383 50.996242660481414C167.93203658436383 54.496242660481414 169.43203658436383 56.496242660481414 169.43203658436383 56.496242660481414L172.43203658436377 54.49624266048147L175.4320365843638 58.49624266048147C175.4320365843638 58.49624266048147 176.93203658436371 60.49624266048153 178.43203658436377 58.49624266048147C179.93203658436383 56.496242660481414 179.9320365843638 54.49624266048147 179.9320365843638 54.49624266048147L178.4320365843638 50.996242660481414L182.93203658436383 45.99624266048147C182.93203658436383 45.99624266048147 184.43203658436377 42.996242660481414 185.9320365843638 44.496242660481414C187.43203658436383 45.996242660481414 184.4320365843638 50.99624266048147 184.4320365843638 50.99624266048147L185.9320365843638 54.496242660481414C185.9320365843638 54.496242660481414 186.3630077092692 52.37586111319459 187.43203658436377 52.996242660481414C188.50106545945835 53.61662420776824 187.43203658436377 58.496242660481414 185.9320365843638 58.496242660481414C184.43203658436383 58.496242660481414 182.93203658436383 58.496242660481414 182.93203658436383 58.496242660481414C182.93203658436383 58.496242660481414 182.93203658436377 61.49624266048153 178.4320365843638 61.49624266048147C173.93203658436383 61.496242660481414 172.43203658436377 61.496242660481414 172.43203658436377 61.496242660481414L172.43203658436377 58.49624266048147C172.43203658436377 58.49624266048147 169.43203658436383 58.496242660481414 169.43203658436383 59.996242660481414C169.43203658436383 61.496242660481414 170.93203658436383 63.996242660481414 170.93203658436383 63.996242660481414L167.93203658436383 63.996242660481414C167.93203658436383 63.996242660481414 167.93203658436377 65.99624266048158 164.9320365843638 65.99624266048147C163.43203658436383 65.99624266048141 163.43203658436383 67.99624266048141 163.43203658436383 67.99624266048141L160.43203658436383 70.49624266048141L161.93203658436383 73.49624266048144Z"/>
    </g>
    <g opacity="1">
      <path fill-opacity="0" stroke="rgb(0,0,0)" stroke-opacity="1" stroke-width="5" stroke-linecap="butt" stroke-linejoin="miter" opacity="1" fill-rule="evenodd" d="M98.4320365843638 198.49624266048136C98.4320365843638 198.49624266048139 93.4320365843638 194.49624266048136 93.4320365843638 191.99624266048136C93.4320365843638 189.49624266048136 93.4320365843638 183.49624266048136 93.4320365843638 183.49624266048136C93.4320365843638 183.49624266048136 95.9320365843638 154.99624266048136 93.4320365843638 152.4962426604814C90.93203658436383 149.99624266048136 82.93203658436383 139.99624266048136 82.4320365843638 137.49624266048136C81.9320365843638 134.99624266048136 86.4320365843638 130.49624266048136 86.4320365843638 126.99624266048139C86.4320365843638 123.4962426604814 83.93203658436383 121.49624266048141 83.93203658436383 121.49624266048141C83.93203658436383 121.49624266048141 76.9320365843638 119.49624266048143 74.93203658436383 114.99624266048141C72.93203658436384 110.49624266048139 67.93203658436386 111.9962426604814 67.93203658436386 111.9962426604814C67.93203658436386 111.9962426604814 58.432036584363814 107.49624266048141 57.93203658436383 103.99624266048141C57.43203658436382 100.49624266048143 47.43203658436383 89.99624266048144 47.43203658436383 89.99624266048144C47.43203658436383 89.99624266048144 40.43203658436383 80.99624266048143 45.93203658436384 73.49624266048143C51.432036584363836 65.99624266048143 37.932036584363814 56.49624266048142 37.932036584363814 56.49624266048142C37.932036584363814 56.49624266048142 38.204649300587405 54.108772183577535 29.93203658436382 54.99624266048136C21.659423868140237 55.88371313738518 13.432036584363818 63.99624266048142 11.932036584363818 63.49624266048143C10.432036584363818 62.99624266048143 19.350111849284286 58.601584214230186 18.432036584363825 56.49624266048142C17.513961319443364 54.390901106732656 14.432036584363827 56.49624266048142 14.432036584363827 56.49624266048142L14.43203658436383 49.99624266048143C14.43203658436383 49.99624266048143 18.498026961770126 48.88517589145035 18.43203658436383 47.49624266048143C18.366046206957535 46.10730942951251 14.644928276719975 46.808140380323096 14.43203658436383 45.49624266048143C14.219144892007685 44.18434494063977 15.932036584363825 43.9962426604814 15.932036584363825 43.9962426604814C15.932036584363825 43.9962426604814 20.08105044045964 45.01920452525804 20.43203658436383 43.99624266048143C20.783022728268012 42.973280795704824 15.581050440459647 41.51920452525809 15.93203658436383 40.496242660481464C16.283022728268016 39.47328079570484 19.307259606469987 41.62101963837528 20.43203658436383 40.496242660481435C21.556813562257673 39.37146568258758 18.686578024727908 40.23178480201971 20.43203658436383 37.99624266048141C22.17749514399975 35.760700518943096 28.432036584363843 35.996242660481464 28.432036584363843 35.996242660481464L45.93203658436384 40.49624266048141L49.43203658436382 37.99624266048138L57.932036584363836 37.99624266048138L63.93203658436384 40.496242660481435L69.43203658436383 43.99624266048137L69.43203658436383 40.49624266048141L76.43203658436383 41.99624266048141L79.4320365843638 40.496242660481435C79.4320365843638 40.496242660481435 80.9320365843638 35.996242660481464 82.4320365843638 35.996242660481435C83.93203658436383 35.99624266048141 83.93203658436383 37.99624266048138 83.93203658436383 37.99624266048138C83.93203658436383 37.99624266048138 81.4320365843638 40.49624266048141 83.93203658436383 40.49624266048141C86.4320365843638 40.49624266048141 86.4320365843638 43.9962426604814 86.4320365843638 43.9962426604814L83.93203658436383 47.4962426604814C83.93203658436383 47.4962426604814 76.43203658436383 53.4962426604814 76.43203658436383 54.9962426604814C76.43203658436383 56.4962426604814 79.4320365843638 58.4962426604814 79.4320365843638 58.4962426604814C79.4320365843638 58.4962426604814 84.93203658436383 60.4962426604814 86.4320365843638 61.9962426604814C87.9320365843638 63.49624266048139 86.4320365843638 65.4962426604814 86.4320365843638 66.4962426604814C86.4320365843638 67.4962426604814 90.43203658436383 66.4962426604814 90.43203658436383 66.4962426604814C90.43203658436383 66.4962426604814 88.9320365843638 63.49624266048139 90.43203658436383 61.9962426604814C91.9320365843638 60.4962426604814 91.9320365843638 56.4962426604814 91.9320365843638 56.4962426604814C91.9320365843638 56.4962426604814 91.43203658436383 49.9962426604814 93.4320365843638 49.9962426604814C95.4320365843638 49.9962426604814 100.9320365843638 52.9962426604814 100.9320365843638 52.9962426604814C100.9320365843638 52.9962426604814 98.9320365843638 56.4962426604814 100.9320365843638 56.4962426604814C102.9320365843638 56.4962426604814 104.9320365843638 54.9962426604814 104.9320365843638 54.9962426604814C104.9320365843638 54.9962426604814 109.4320365843638 60.4962426604814 109.9320365843638 61.9962426604814C110.4320365843638 63.49624266048139 111.9320365843638 66.4962426604814 111.9320365843638 66.4962426604814C111.9320365843638 66.4962426604814 108.9320365843638 68.4962426604814 106.9320365843638 68.4962426604814C104.9320365843638 68.4962426604814 98.34849134899986 69.95350315115132 98.4320365843638 71.4962426604814C98.51558181972774 73.03898216981148 106.9320365843638 71.4962426604814 106.9320365843638 73.4962426604814C106.9320365843638 75.4962426604814 96.4320365843638 76.9962426604814 95.9320365843638 77.99624266048139C95.4320365843638 78.99624266048139 95.9320365843638 79.99624266048141 95.9320365843638 79.99624266048141C95.9320365843638 79.99624266048141 93.4320365843638 79.99624266048141 91.9320365843638 82.4962426604814C90.43203658436383 84.99624266048141 92.4320365843638 85.99624266048139 90.43203658436383 87.9962426604814C88.4320365843638 89.99624266048139 83.93203658436383 93.4962426604814 83.93203658436383 93.4962426604814C83.93203658436383 93.4962426604814 86.4320365843638 98.4962426604814 86.4320365843638 100.49624266048139C86.4320365843638 102.49624266048139 83.93203658436383 101.99624266048137 83.93203658436383 101.99624266048137C83.93203658436383 101.99624266048137 82.4320365843638 97.9962426604814 82.4320365843638 96.49624266048139C82.4320365843638 94.99624266048139 76.43203658436383 94.99624266048139 76.43203658436383 94.99624266048139L76.43203658436383 96.49624266048139L73.43203658436383 96.49624266048139C73.43203658436383 96.49624266048139 63.93203658436384 93.4962426604814 69.43203658436383 109.49624266048139C70.24473600564141 111.86045915874355 73.43203658436383 109.49624266048139 73.43203658436383 109.49624266048139C73.43203658436383 109.49624266048139 75.30030614170771 105.57758832195688 76.43203658436383 105.99624266048139C77.56376702701994 106.41489699900589 76.43203658436383 111.99624266048139 76.43203658436383 111.99624266048139L79.4320365843638 111.99624266048139L82.4320365843638 116.49624266048136L86.4320365843638 119.49624266048137L91.9320365843638 116.49624266048139L98.4320365843638 119.49624266048139L102.4320365843638 117.99624266048139C102.4320365843638 117.99624266048139 112.9320365843638 125.49624266048139 113.9320365843638 128.99624266048136C114.9320365843638 132.49624266048139 111.9320365843638 132.99624266048136 111.9320365843638 132.99624266048136C111.9320365843638 132.99624266048136 115.4320365843638 132.99624266048136 118.9320365843638 132.99624266048136C122.4320365843638 132.99624266048136 128.4320365843638 137.49624266048133 128.4320365843638 137.49624266048133L125.4320365843638 146.49624266048139C125.4320365843638 146.49624266048139 125.9320365843638 154.99624266048136 123.4320365843638 156.99624266048136C120.9320365843638 158.99624266048139 117.4320365843638 157.99624266048136 116.9320365843638 159.9962426604814C116.4320365843638 161.99624266048139 113.9320365843638 167.49624266048139 113.9320365843638 167.49624266048139C113.9320365843638 167.49624266048139 109.9320365843638 172.49624266048139 108.4320365843638 171.99624266048139C106.9320365843638 171.49624266048139 108.4320365843638 176.49624266048139 108.4320365843638 176.49624266048139C108.4320365843638 176.49624266048139 107.4320365843638 177.99624266048139 104.9320365843638 177.99624266048139C102.4320365843638 177.99624266048139 102.4320365843638 183.49624266048133 102.4320365843638 183.49624266048133L100.9320365843638 186.99624266048139L100.9320365843638 191.99624266048133C100.9320365843638 191.99624266048133 98.4320365843638 198.49624266048133 98.4320365843638 198.49624266048136Z"/>
    </g>
  </g>
</svg>